<svg xmlns="http://www.w3.org/2000/svg" height="20" width="20" viewBox="0 0 20 20"><path class="fadein" d="M17.253 3.202c-1.927-1.642-4.792-1.347-6.56.478L10 4.394l-.692-.714c-1.765-1.825-4.634-2.12-6.56-.478C.54 5.086.424 8.468 2.4 10.51l6.802 7.024c.44.453 1.153.453 1.593 0l6.802-7.024c1.98-2.043 1.864-5.425-.344-7.31z"/><path class="stroke" d="M17.906 2.51C15.648.612 12.16.897 10 3.096 7.84.896 4.352.608 2.094 2.51-.844 4.983-.414 9.014 1.68 11.15l6.851 6.981a2.048 2.048 0 002.938.004l6.851-6.98c2.09-2.137 2.528-6.168-.414-8.645zm-.922 7.324l-6.851 6.98c-.094.095-.172.095-.266 0l-6.851-6.98C1.59 8.381 1.3 5.631 3.3 3.948c1.52-1.278 3.863-1.086 5.332.41L10 5.752l1.367-1.394c1.477-1.504 3.82-1.688 5.332-.414 1.996 1.683 1.7 4.449.285 5.89z"/></svg>