<svg xmlns="http://www.w3.org/2000/svg" height="20" width="20" viewBox="0 0 20 20"><path class="fadeout" d="M18.253 4.202c-1.927-1.642-4.792-1.347-6.56.478L11 5.394l-.692-.714c-1.765-1.825-4.634-2.12-6.56-.478C1.54 6.086 1.424 9.468 3.4 11.51l6.802 7.024c.44.453 1.153.453 1.593 0l6.802-7.024c1.98-2.043 1.864-5.425-.344-7.31z"/><path class="stroke" d="M18.906 3.51C16.648 1.612 13.16 1.897 11 4.096c-2.16-2.2-5.648-2.488-7.906-.586C.156 5.983.586 10.014 2.68 12.15l6.851 6.981a2.048 2.048 0 002.938.004l6.851-6.98c2.09-2.137 2.528-6.168-.414-8.645zm-.922 7.324l-6.851 6.98c-.094.095-.172.095-.266 0l-6.851-6.98C2.59 9.381 2.3 6.631 4.3 4.948c1.52-1.278 3.863-1.086 5.332.41L11 6.752l1.367-1.394c1.477-1.504 3.82-1.688 5.332-.414 1.996 1.683 1.7 4.449.285 5.89z"/></svg>