<svg xmlns="http://www.w3.org/2000/svg" height="20" width="20" viewBox="0 0 20 20"><path class="fadeout" d="M9.034 1.985L6.837 6.44l-4.915.716a1.077 1.077 0 00-.596 1.837l3.557 3.466-.841 4.895c-.152.885.78 1.548 1.56 1.134L10 16.177l4.397 2.31c.78.411 1.713-.248 1.561-1.133l-.84-4.895 3.556-3.466a1.077 1.077 0 00-.596-1.837l-4.915-.716-2.197-4.455c-.394-.794-1.535-.804-1.932 0z"/><path class="stroke" d="M18.976 6.84l-5.462-.796-2.441-4.95c-.437-.882-1.705-.893-2.146 0l-2.441 4.95-5.462.796c-.98.142-1.372 1.35-.661 2.042l3.951 3.85-.935 5.44c-.168.982.868 1.719 1.735 1.259L10 16.863l4.886 2.568c.867.456 1.903-.277 1.735-1.26l-.935-5.439 3.951-3.85c.71-.692.318-1.9-.661-2.042zm-5.215 5.264l.886 5.174L10 14.837l-4.647 2.44.886-5.173L2.48 8.44l5.196-.755L10 2.975l2.325 4.71 5.196.755z"/></svg>