<?xml version="1.0" encoding="UTF-8" standalone="no"?>
<svg
   xmlns:dc="http://purl.org/dc/elements/1.1/"
   xmlns:cc="http://creativecommons.org/ns#"
   xmlns:rdf="http://www.w3.org/1999/02/22-rdf-syntax-ns#"
   xmlns:svg="http://www.w3.org/2000/svg"
   xmlns="http://www.w3.org/2000/svg"
   height="20"
   width="20"
   id="svg4"
   version="1.1"
   viewBox="0 0 20 20">
  <metadata
     id="metadata10">
    <rdf:RDF>
      <cc:Work
         rdf:about="">
        <dc:format>image/svg+xml</dc:format>
        <dc:type
           rdf:resource="http://purl.org/dc/dcmitype/StillImage" />
        <dc:title></dc:title>
      </cc:Work>
    </rdf:RDF>
  </metadata>
  <defs
     id="defs8" />
  <path
     style="stroke-width:0.99999994"
     d="M 9.981665,8.1307987e-6 C 7.309535,0.00500813 4.883365,1.0577881 3.092155,2.7695581 l -1.44008,-1.44008 C 1.042395,0.71979813 1.4999867e-5,1.1515781 1.4999867e-5,2.0137581 v 5.4056 c 0,0.53448 0.433270000133,0.96774 0.967740000133,0.96774 h 5.40561 c 0.86217,0 1.29395,-1.04238 0.68431,-1.65205 l -1.68347,-1.68347 c 1.24452,-1.16528 2.85488,-1.81077 4.56573,-1.82553 3.72572,-0.0322 6.86625,2.98295 6.83403,6.8323399 -0.0306,3.65166 -2.99105,6.71581 -6.77395,6.71581 -1.65835,0 -3.22569,-0.59186 -4.46089,-1.67565 -0.19125,-0.16778 -0.48008,-0.15758 -0.66,0.0223 l -1.59927,1.59928 c -0.19645,0.19645 -0.18674,0.51673 0.0194,0.70294 1.77323,1.60165 4.12307,2.57694 6.70073,2.57694 5.52282,0 9.99996,-4.47714 10,-9.99992 4e-5,-5.5164999 -4.50186,-10.00995987 -10.01835,-10.0000798692013 z"
     id="path861" />
</svg>
