<?xml version="1.0" encoding="UTF-8" standalone="no"?>
<svg
   xmlns:dc="http://purl.org/dc/elements/1.1/"
   xmlns:cc="http://creativecommons.org/ns#"
   xmlns:rdf="http://www.w3.org/1999/02/22-rdf-syntax-ns#"
   xmlns:svg="http://www.w3.org/2000/svg"
   xmlns="http://www.w3.org/2000/svg"
   height="20"
   width="20"
   xml:space="preserve"
   viewBox="0 0 20 20"
   y="0px"
   x="0px"
   id="Capa_1"
   version="1.1"><metadata
   id="metadata39"><rdf:RDF><cc:Work
       rdf:about=""><dc:format>image/svg+xml</dc:format><dc:type
         rdf:resource="http://purl.org/dc/dcmitype/StillImage" /><dc:title></dc:title></cc:Work></rdf:RDF></metadata><defs
   id="defs37" />
<path
   id="path2"
   d="m 9.9401993,4.0502812 c 0.8072157,-1.913238 2.6512517,-3.25006398 4.7960947,-3.25006398 2.889258,0 4.970099,2.47164898 5.231704,5.41730698 0,0 0.141203,0.731215 -0.169603,2.047641 -0.423208,1.7928358 -1.418028,3.3856678 -2.759255,4.6012918 L 9.9401993,19.200183 2.9608603,12.866057 C 1.6196333,11.650833 0.62481323,10.057601 0.20160523,8.2647652 c -0.310806,-1.316426 -0.169603,-2.047641 -0.169603,-2.047641 0.261605,-2.945658 2.34244607,-5.41730698 5.23170407,-5.41730698 2.145242,0 3.869277,1.33722598 4.676493,3.25046398 z"
   style="fill:#000000;stroke-width:0.40000796" />
<g
   transform="translate(0,-30)"
   id="g4">
</g>
<g
   transform="translate(0,-30)"
   id="g6">
</g>
<g
   transform="translate(0,-30)"
   id="g8">
</g>
<g
   transform="translate(0,-30)"
   id="g10">
</g>
<g
   transform="translate(0,-30)"
   id="g12">
</g>
<g
   transform="translate(0,-30)"
   id="g14">
</g>
<g
   transform="translate(0,-30)"
   id="g16">
</g>
<g
   transform="translate(0,-30)"
   id="g18">
</g>
<g
   transform="translate(0,-30)"
   id="g20">
</g>
<g
   transform="translate(0,-30)"
   id="g22">
</g>
<g
   transform="translate(0,-30)"
   id="g24">
</g>
<g
   transform="translate(0,-30)"
   id="g26">
</g>
<g
   transform="translate(0,-30)"
   id="g28">
</g>
<g
   transform="translate(0,-30)"
   id="g30">
</g>
<g
   transform="translate(0,-30)"
   id="g32">
</g>
</svg>