<?xml version="1.0" encoding="UTF-8" standalone="no"?>
<svg
   xmlns:dc="http://purl.org/dc/elements/1.1/"
   xmlns:cc="http://creativecommons.org/ns#"
   xmlns:rdf="http://www.w3.org/1999/02/22-rdf-syntax-ns#"
   xmlns:svg="http://www.w3.org/2000/svg"
   xmlns="http://www.w3.org/2000/svg"
   height="20"
   width="20"
   id="svg4"
   version="1.1"
   viewBox="0 0 20 20">
  <metadata
     id="metadata10">
    <rdf:RDF>
      <cc:Work
         rdf:about="">
        <dc:format>image/svg+xml</dc:format>
        <dc:type
           rdf:resource="http://purl.org/dc/dcmitype/StillImage" />
        <dc:title></dc:title>
      </cc:Work>
    </rdf:RDF>
  </metadata>
  <defs
     id="defs8" />
  <path
     style="stroke-width:1"
     d="m 17.906237,2.5101963 c -2.25781,-1.89843001 -5.74609,-1.61328001 -7.9062398,0.58594 -2.16016,-2.19922001 -5.64843,-2.48828001 -7.90624,-0.58594 -2.93750004,2.47266 -2.50782004,6.50391 -0.41407,8.6406197 l 6.85156,6.98047 c 0.39062,0.39843 0.91406,0.62109 1.46875,0.62109 0.5585898,0 1.0781198,-0.21875 1.4687498,-0.61719 l 6.85156,-6.98046 c 2.08984,-2.1367197 2.52734,-6.1679597 -0.41407,-8.6445297 z m -0.92187,7.32422 -6.85156,6.9804597 c -0.0937,0.0937 -0.1718698,0.0937 -0.2656198,0 l -6.85156,-6.9804597 c -1.42578,-1.45313 -1.71484,-4.20312 0.28516,-5.88672 1.51953,-1.27734 3.86327,-1.08593 5.33202,0.41016 l 1.36719,1.39453 1.3671898,-1.39453 c 1.47656,-1.50391 3.82031,-1.6875 5.33202,-0.41406 1.99609,1.68359 1.69922,4.44921 0.28516,5.89062 z"
     id="path817" />
</svg>
