<?xml version="1.0" encoding="UTF-8" standalone="no"?>
<svg
   xmlns:dc="http://purl.org/dc/elements/1.1/"
   xmlns:cc="http://creativecommons.org/ns#"
   xmlns:rdf="http://www.w3.org/1999/02/22-rdf-syntax-ns#"
   xmlns:svg="http://www.w3.org/2000/svg"
   xmlns="http://www.w3.org/2000/svg"
   height="20"
   width="20"
   xml:space="preserve"
   viewBox="0 0 20 20"
   y="0px"
   x="0px"
   id="Capa_1"
   version="1.1"><metadata
   id="metadata39"><rdf:RDF><cc:Work
       rdf:about=""><dc:format>image/svg+xml</dc:format><dc:type
         rdf:resource="http://purl.org/dc/dcmitype/StillImage" /><dc:title></dc:title></cc:Work></rdf:RDF></metadata><defs
   id="defs37" />
<path
   id="path2"
   d="m 5.6142789,0.6025454 c -3.0838625,0 -5.28496778,2.6288315 -5.57676157,5.6451283 -0.002839,0.016964 -0.15047122,0.8719897 0.16017318,2.1877314 0.42937185,1.8189489 1.43482319,3.4228669 2.78154419,4.6430699 l 6.9616737,6.319027 7.0769206,-6.315121 0.0039,-0.002 C 18.368298,11.859914 19.371944,10.25433 19.80132,8.4353581 20.110862,7.1242883 19.96727,6.2784276 19.963446,6.2554399 19.674125,3.2365031 17.470743,0.6024984 14.384732,0.6024984 c -1.89998,0 -3.420486,1.1144356 -4.4301562,2.603791 C 8.9744425,1.7264233 7.5134691,0.6025454 5.6142789,0.6025454 Z m 0,1.5001587 c 1.67443,0 2.9917436,1.0168095 3.6390568,2.551051 L 9.9448151,6.290647 10.636294,4.6537551 c 0.636949,-1.509677 2.074349,-2.551051 3.748444,-2.551051 2.247196,0 3.881669,1.917583 4.096136,4.3324894 l 0.0039,0.037113 0.0078,0.037113 c 0,0 0.1114,0.4733102 -0.150406,1.5821986 -0.354259,1.5007445 -1.191447,2.8469089 -2.328371,3.8773639 L 9.9487217,17.377757 3.9871538,11.967029 C 2.8503819,10.937051 2.013047,9.5923896 1.6587825,8.0916187 1.3969756,6.9827295 1.508376,6.5094201 1.508376,6.5094201 l 0.00781,-0.037113 0.00195,-0.039067 C 1.7326115,4.0183333 3.367085,2.1027041 5.6142789,2.1027041 Z"
   style="color:#000000;font-style:normal;font-variant:normal;font-weight:normal;font-stretch:normal;font-size:medium;line-height:normal;font-family:sans-serif;font-variant-ligatures:normal;font-variant-position:normal;font-variant-caps:normal;font-variant-numeric:normal;font-variant-alternates:normal;font-feature-settings:normal;text-indent:0;text-align:start;text-decoration:none;text-decoration-line:none;text-decoration-style:solid;text-decoration-color:#000000;letter-spacing:normal;word-spacing:normal;text-transform:none;writing-mode:lr-tb;direction:ltr;text-orientation:mixed;dominant-baseline:auto;baseline-shift:baseline;text-anchor:start;white-space:normal;shape-padding:0;clip-rule:nonzero;display:inline;overflow:visible;visibility:visible;opacity:1;isolation:auto;mix-blend-mode:normal;color-interpolation:sRGB;color-interpolation-filters:linearRGB;solid-color:#000000;solid-opacity:1;vector-effect:none;fill:#000000;fill-opacity:1;fill-rule:nonzero;stroke:none;stroke-width:1.50011647;stroke-linecap:butt;stroke-linejoin:miter;stroke-miterlimit:4;stroke-dasharray:none;stroke-dashoffset:0;stroke-opacity:1;color-rendering:auto;image-rendering:auto;shape-rendering:auto;text-rendering:auto;enable-background:accumulate" />
<g
   transform="translate(0,-30)"
   id="g4">
</g>
<g
   transform="translate(0,-30)"
   id="g6">
</g>
<g
   transform="translate(0,-30)"
   id="g8">
</g>
<g
   transform="translate(0,-30)"
   id="g10">
</g>
<g
   transform="translate(0,-30)"
   id="g12">
</g>
<g
   transform="translate(0,-30)"
   id="g14">
</g>
<g
   transform="translate(0,-30)"
   id="g16">
</g>
<g
   transform="translate(0,-30)"
   id="g18">
</g>
<g
   transform="translate(0,-30)"
   id="g20">
</g>
<g
   transform="translate(0,-30)"
   id="g22">
</g>
<g
   transform="translate(0,-30)"
   id="g24">
</g>
<g
   transform="translate(0,-30)"
   id="g26">
</g>
<g
   transform="translate(0,-30)"
   id="g28">
</g>
<g
   transform="translate(0,-30)"
   id="g30">
</g>
<g
   transform="translate(0,-30)"
   id="g32">
</g>
</svg>