<svg xmlns="http://www.w3.org/2000/svg" height="20" width="20" viewBox="0 0 20 20">
    <path class="fadeout" d="M 18.252857,4.2019372 C 16.326325,2.5601657 13.461149,2.8554737 11.69282,4.6800532 L 11.000261,5.3937079 10.307692,4.6800532 C 8.5428817,2.8554737 5.6741857,2.5601657 3.7476637,4.2019372 1.539891,6.0862761 1.423881,9.4682431 3.3996243,11.510773 l 6.8026057,7.024095 c 0.439443,0.453503 1.1531,0.453503 1.592544,0 l 6.802603,-7.024095 c 1.979261,-2.0425299 1.863245,-5.4244969 -0.34452,-7.3088358 z"/>
    <path class="stroke" d="m 18.906237,3.5101964 c -2.25781,-1.89843 -5.74609,-1.61328 -7.90624,0.58594 -2.1601597,-2.19922 -5.6484297,-2.48828 -7.9062397,-0.58594 -2.93750004,2.47266 -2.50782004,6.5039096 -0.41407,8.6406196 l 6.85156,6.98047 c 0.39062,0.39843 0.9140597,0.62109 1.4687497,0.62109 0.55859,0 1.07812,-0.21875 1.46875,-0.61719 l 6.85156,-6.98046 c 2.08984,-2.13672 2.52734,-6.1679596 -0.41407,-8.6445296 z m -0.92187,7.3242196 -6.85156,6.98046 c -0.0937,0.0937 -0.17187,0.0937 -0.26562,0 l -6.8515597,-6.98046 c -1.42578,-1.4531299 -1.71484,-4.2031196 0.28516,-5.8867196 1.51953,-1.27734 3.86327,-1.08593 5.33202,0.41016 l 1.3671897,1.39453 1.36719,-1.39453 c 1.47656,-1.50391 3.82031,-1.6875 5.33202,-0.41406 1.99609,1.68359 1.69922,4.4492097 0.28516,5.8906196 z"/>
</svg>