<svg xmlns="http://www.w3.org/2000/svg" height="20" width="20" viewBox="0 0 20 20">
    <path class="fadeout" d="m 9.0343945,1.9851675 -2.197008,4.4545769 -4.915503,0.7166342 c -0.881496,0.127845 -1.234764,1.214577 -0.595512,1.836999 l 3.55626,3.4654144 -0.841122,4.895325 c -0.151407,0.884853 0.780561,1.547658 1.561113,1.133829 l 4.3973825,-2.311398 4.397373,2.311398 c 0.780561,0.410463 1.71252,-0.248976 1.561113,-1.133829 l -0.841113,-4.895325 3.556251,-3.4654144 c 0.639252,-0.622422 0.285984,-1.709154 -0.595512,-1.836999 L 13.162614,6.4397444 10.965606,1.9851675 c -0.393642,-0.794016 -1.5342035,-0.804105 -1.9312115,0 z"/>
    <path class="stroke" d="m 18.975688,6.8404188 -5.46168,-0.79626 -2.44111,-4.94952 c -0.43739,-0.88224998 -1.7046704,-0.89345998 -2.1457904,0 l -2.44112,4.94952 -5.46167,0.79626 c -0.97944003,0.14205 -1.37196003,1.34953 -0.66169003,2.04112 l 3.95140003,3.8504602 -0.93458,5.43924 c -0.16822,0.98318 0.86729,1.71962 1.73458,1.25981 l 4.88597,-2.56822 4.8859704,2.56822 c 0.86729,0.45607 1.9028,-0.27663 1.73458,-1.25981 l -0.93458,-5.43924 3.9514,-3.8504602 c 0.71028,-0.69159 0.31775,-1.89907 -0.66168,-2.04112 z m -5.21495,5.2635402 0.88598,5.17382 -4.6467204,-2.44111 -4.64672,2.44111 0.88598,-5.17382 -3.76074,-3.6635402 5.19625,-0.75514 2.32523,-4.71027 2.3252304,4.71027 5.19625,0.75514 z"/>
</svg>